<?xml version="1.0" encoding="UTF-8"?>
<svg width="18px" height="18px" viewBox="0 0 18 18" version="1.1" xmlns="http://www.w3.org/2000/svg" xmlns:xlink="http://www.w3.org/1999/xlink">
    <!-- Generator: Sketch 49.3 (51167) - http://www.bohemiancoding.com/sketch -->
    <title>模块</title>
    <desc>Created with Sketch.</desc>
    <defs></defs>
    <g id="第二版" stroke="none" stroke-width="1" fill="none" fill-rule="evenodd">
        <g id="课程章节" transform="translate(-392.000000, -715.000000)" fill="#9B9B9B">
            <path d="M401,733 C396.029437,733 392,728.970563 392,724 C392,719.029437 396.029437,715 401,715 C405.970563,715 410,719.029437 410,724 C410,728.970563 405.970563,733 401,733 Z M404.811644,719.5 L397.188356,719.5 C396.996575,719.5 396.833904,719.566122 396.700342,719.698366 C396.566781,719.83061 396.5,719.991677 396.5,720.181566 L396.5,720.70037 C396.5,720.890259 396.566781,721.051326 396.700342,721.18357 C396.833904,721.315814 396.996575,721.381936 397.188356,721.381936 L404.811644,721.381936 C405.003425,721.381936 405.166096,721.315814 405.299658,721.18357 C405.433219,721.051326 405.5,720.890259 405.5,720.70037 L405.5,720.181566 C405.5,719.991677 405.433219,719.83061 405.299658,719.698366 C405.166096,719.566122 405.003425,719.5 404.811644,719.5 Z M404.811644,722.684032 L397.188356,722.684032 C396.996575,722.684032 396.833904,722.750154 396.700342,722.882398 C396.566781,723.014642 396.5,723.175709 396.5,723.365598 L396.5,723.884402 C396.5,724.074291 396.566781,724.235358 396.700342,724.367602 C396.833904,724.499846 396.996575,724.565968 397.188356,724.565968 L404.811644,724.565968 C405.003425,724.565968 405.166096,724.499846 405.299658,724.367602 C405.433219,724.235358 405.5,724.074291 405.5,723.884402 L405.5,723.365598 C405.5,723.175709 405.433219,723.014642 405.299658,722.882398 C405.166096,722.750154 405.003425,722.684032 404.811644,722.684032 Z M404.811644,725.868064 L397.188356,725.868064 C396.996575,725.868064 396.833904,725.934186 396.700342,726.06643 C396.566781,726.198674 396.5,726.359741 396.5,726.54963 L396.5,727.068434 C396.5,727.258323 396.566781,727.41939 396.700342,727.551634 C396.833904,727.683878 396.996575,727.75 397.188356,727.75 L404.811644,727.75 C405.003425,727.75 405.166096,727.683878 405.299658,727.551634 C405.433219,727.41939 405.5,727.258323 405.5,727.068434 L405.5,726.54963 C405.5,726.359741 405.433219,726.198674 405.299658,726.06643 C405.166096,725.934186 405.003425,725.868064 404.811644,725.868064 Z" id="模块"></path>
        </g>
    </g>
</svg>