<?xml version="1.0" encoding="UTF-8"?>
<svg width="18px" height="18px" viewBox="0 0 18 18" version="1.1" xmlns="http://www.w3.org/2000/svg" xmlns:xlink="http://www.w3.org/1999/xlink">
    <!-- Generator: Sketch 49.3 (51167) - http://www.bohemiancoding.com/sketch -->
    <title>播放 copy</title>
    <desc>Created with Sketch.</desc>
    <defs></defs>
    <g id="第二版" stroke="none" stroke-width="1" fill="none" fill-rule="evenodd">
        <g id="课程章节" transform="translate(-1182.000000, -815.000000)" fill="#4A4A4A">
            <g id="Group-4" transform="translate(417.000000, 814.000000)">
                <path d="M772.354919,14.1371466 C772.305463,14.1371466 772.255984,14.1250009 772.210238,14.1016668 C772.101505,14.0470684 772.033852,13.9360032 772.033852,13.8156179 L772.033852,6.46812944 C772.033852,6.34867846 772.100105,6.23898045 772.206505,6.18344782 C772.311972,6.12791519 772.440323,6.1363237 772.538325,6.2044577 L777.68117,9.78206235 C777.766574,9.84133209 777.817919,9.93840595 777.819319,10.041997 C777.820741,10.1460665 777.771707,10.2436189 777.688168,10.3051902 L772.545346,14.0741397 C772.489869,14.1150429 772.42326,14.1370782 772.354941,14.1371466 L772.354919,14.1371466 Z M774,17.7142727 C769.746171,17.7142727 766.285711,14.2538175 766.285711,10 C766.285711,5.7461825 769.746171,2.28570452 774,2.28570452 C778.253829,2.28570452 781.714267,5.7461825 781.714267,10 C781.714267,14.2538175 778.253829,17.7142727 774,17.7142727 L774,17.7142727 Z M774,1 C769.029342,1 765,5.0293399 765,10 C765,14.9706601 769.029342,19 774,19 C778.971102,19 783,14.9706601 783,10 C783,5.0293399 778.971102,1 774,1 L774,1 Z" id="播放-copy"></path>
            </g>
        </g>
    </g>
</svg>